<?xml version="1.0" standalone="no"?><!-- Generator: Gravit.io --><svg xmlns="http://www.w3.org/2000/svg" xmlns:xlink="http://www.w3.org/1999/xlink" style="isolation:isolate" viewBox="0 0 128 128" width="128" height="128"><defs><clipPath id="_clipPath_sICdDOou1LpCKKqXYMcpBa2R9OjW1dQl"><rect width="128" height="128"/></clipPath></defs><g clip-path="url(#_clipPath_sICdDOou1LpCKKqXYMcpBa2R9OjW1dQl)"><path d=" M 15.722 57.56 C 26.397 22.995 56.542 1.567 82.996 9.738 C 109.45 17.908 122.261 52.604 111.585 87.168 C 100.91 121.732 76.492 124.618 50.038 116.447 C 23.583 108.276 5.046 92.124 15.722 57.56 Z " fill="rgb(249,228,196)"/><path d=" M 23.981 93.272 Q 39.208 101.742 48.429 103.41 C 58.001 105.14 66.67 105.639 75.86 102.217 C 83.69 99.301 89.316 94.624 94.941 88.502 Q 103.651 79.024 109.849 55.705 Q 111.762 65.32 111.638 70.613 C 111.487 77.053 110.272 82.459 108.06 88.502 C 106.187 93.62 104.297 97.929 100.905 102.217 C 97.758 106.194 94.571 109.218 90.171 111.758 C 86.479 113.889 83.017 115.091 78.841 115.932 C 73.465 117.014 68.758 116.586 63.337 115.932 C 53.321 114.725 44.713 112.35 36.503 106.391 Q 31.318 102.627 23.981 93.272 Z " fill="rgb(206,171,141)"/><path d=" M 50.935 17.047 C 58.813 12.592 66.985 12.115 69.172 15.982 C 71.359 19.85 66.739 26.606 58.861 31.062 C 50.982 35.517 42.811 35.994 40.624 32.126 C 38.437 28.259 43.057 21.502 50.935 17.047 Z " fill="rgb(255,252,250)"/></g></svg>
