<?xml version="1.0" standalone="no"?><!-- Generator: Gravit.io --><svg xmlns="http://www.w3.org/2000/svg" xmlns:xlink="http://www.w3.org/1999/xlink" style="isolation:isolate" viewBox="0 0 303.708 55.863" width="303.708" height="55.863"><defs><clipPath id="_clipPath_BZei3NyEz6rWoV1Uu9wNtcLVSof1Mlvb"><rect width="303.708" height="55.863"/></clipPath></defs><g clip-path="url(#_clipPath_BZei3NyEz6rWoV1Uu9wNtcLVSof1Mlvb)"><rect width="303.708" height="55.863" style="fill:rgb(0,0,0)"/><mask id="_mask_wdxGidPoZFPpEPOapAXiFulMCRvLrr1X" x="-200%" y="-200%" width="400%" height="400%"><rect x="0" y="0" width="100%" height="100%" style="fill:white;"/><path d=" M 212.875 49.307 L 203.635 49.307 L 201.242 38.424 L 198.013 24.675 L 197.818 24.675 L 192.141 49.307 L 183.012 49.307 L 174.161 18.19 L 182.622 18.19 L 186.212 31.967 L 186.212 31.967 Q 187.075 35.669 187.966 42.182 L 187.966 42.182 L 188.133 42.182 L 188.133 42.182 Q 188.244 40.066 189.107 35.474 L 189.107 35.474 L 189.552 33.108 L 193.393 18.19 L 202.745 18.19 L 206.391 33.108 L 206.391 33.108 Q 206.502 33.721 206.739 34.917 L 206.739 34.917 L 206.739 34.917 Q 206.975 36.114 207.198 37.464 L 207.198 37.464 L 207.198 37.464 Q 207.42 38.814 207.601 40.108 L 207.601 40.108 L 207.601 40.108 Q 207.782 41.402 207.81 42.182 L 207.81 42.182 L 207.977 42.182 L 207.977 42.182 Q 208.228 40.178 208.868 36.685 L 208.868 36.685 L 208.868 36.685 Q 209.508 33.192 209.786 31.967 L 209.786 31.967 L 213.516 18.19 L 221.837 18.19 L 212.875 49.307 Z  M 226.485 10.147 L 226.485 10.147 L 226.485 10.147 Q 226.485 6 231.105 6 L 231.105 6 L 231.105 6 Q 235.726 6 235.726 10.147 L 235.726 10.147 L 235.726 10.147 Q 235.726 12.123 234.571 13.222 L 234.571 13.222 L 234.571 13.222 Q 233.416 14.322 231.105 14.322 L 231.105 14.322 L 231.105 14.322 Q 226.485 14.322 226.485 10.147 Z  M 235.336 18.19 L 235.336 49.307 L 226.847 49.307 L 226.847 18.19 L 235.336 18.19 Z  M 257.351 43.1 L 257.351 43.1 L 257.351 43.1 Q 259.578 43.1 262.695 42.126 L 262.695 42.126 L 262.695 48.444 L 262.695 48.444 Q 259.522 49.863 254.902 49.863 L 254.902 49.863 L 254.902 49.863 Q 249.809 49.863 247.485 47.289 L 247.485 47.289 L 247.485 47.289 Q 245.161 44.714 245.161 39.565 L 245.161 39.565 L 245.161 24.564 L 241.097 24.564 L 241.097 20.974 L 245.773 18.135 L 248.222 11.566 L 253.649 11.566 L 253.649 18.19 L 262.361 18.19 L 262.361 24.564 L 253.649 24.564 L 253.649 39.565 L 253.649 39.565 Q 253.649 41.375 254.665 42.237 L 254.665 42.237 L 254.665 42.237 Q 255.681 43.1 257.351 43.1 Z  M 297.708 29.017 L 297.708 49.307 L 289.219 49.307 L 289.219 31.132 L 289.219 31.132 Q 289.219 24.397 284.209 24.397 L 284.209 24.397 L 284.209 24.397 Q 280.646 24.397 279.06 26.818 L 279.06 26.818 L 279.06 26.818 Q 277.474 29.24 277.474 34.667 L 277.474 34.667 L 277.474 49.307 L 268.985 49.307 L 268.985 6 L 277.474 6 L 277.474 14.823 L 277.474 14.823 Q 277.474 15.853 277.279 19.666 L 277.279 19.666 L 277.084 22.17 L 277.529 22.17 L 277.529 22.17 Q 280.368 17.606 286.547 17.606 L 286.547 17.606 L 286.547 17.606 Q 292.03 17.606 294.869 20.556 L 294.869 20.556 L 294.869 20.556 Q 297.708 23.506 297.708 29.017 L 297.708 29.017 Z  M 31.132 49.307 L 23.228 49.307 L 13.431 17.383 L 13.181 17.383 L 13.181 17.383 Q 13.709 27.125 13.709 30.381 L 13.709 30.381 L 13.709 49.307 L 6 49.307 L 6 8.616 L 17.745 8.616 L 27.375 39.732 L 27.542 39.732 L 37.756 8.616 L 49.501 8.616 L 49.501 49.307 L 41.458 49.307 L 41.458 30.047 L 41.458 30.047 Q 41.458 28.683 41.5 26.902 L 41.5 26.902 L 41.5 26.902 Q 41.542 25.121 41.875 17.439 L 41.875 17.439 L 41.625 17.439 L 31.132 49.307 Z  M 84.765 49.307 L 78.836 49.307 L 77.194 45.076 L 76.972 45.076 L 76.972 45.076 Q 74.829 47.776 72.56 48.82 L 72.56 48.82 L 72.56 48.82 Q 70.292 49.863 66.646 49.863 L 66.646 49.863 L 66.646 49.863 Q 62.165 49.863 59.591 47.303 L 59.591 47.303 L 59.591 47.303 Q 57.016 44.742 57.016 40.011 L 57.016 40.011 L 57.016 40.011 Q 57.016 35.057 60.481 32.705 L 60.481 32.705 L 60.481 32.705 Q 63.946 30.353 70.932 30.103 L 70.932 30.103 L 76.332 29.936 L 76.332 28.572 L 76.332 28.572 Q 76.332 23.84 71.489 23.84 L 71.489 23.84 L 71.489 23.84 Q 67.759 23.84 62.722 26.095 L 62.722 26.095 L 59.911 20.361 L 59.911 20.361 Q 65.282 17.55 71.823 17.55 L 71.823 17.55 L 71.823 17.55 Q 78.085 17.55 81.425 20.278 L 81.425 20.278 L 81.425 20.278 Q 84.765 23.005 84.765 28.572 L 84.765 28.572 L 84.765 49.307 Z  M 76.332 37.45 L 76.332 34.89 L 73.047 35.001 L 73.047 35.001 Q 69.346 35.112 67.537 36.337 L 67.537 36.337 L 67.537 36.337 Q 65.728 37.562 65.728 40.066 L 65.728 40.066 L 65.728 40.066 Q 65.728 43.657 69.847 43.657 L 69.847 43.657 L 69.847 43.657 Q 72.797 43.657 74.564 41.959 L 74.564 41.959 L 74.564 41.959 Q 76.332 40.261 76.332 37.45 L 76.332 37.45 Z  M 103.356 49.863 L 103.356 49.863 L 103.356 49.863 Q 97.874 49.863 94.742 45.605 L 94.742 45.605 L 94.742 45.605 Q 91.611 41.347 91.611 33.804 L 91.611 33.804 L 91.611 33.804 Q 91.611 26.15 94.798 21.878 L 94.798 21.878 L 94.798 21.878 Q 97.985 17.606 103.579 17.606 L 103.579 17.606 L 103.579 17.606 Q 109.452 17.606 112.541 22.17 L 112.541 22.17 L 112.819 22.17 L 112.819 22.17 Q 112.179 18.691 112.179 15.964 L 112.179 15.964 L 112.179 6 L 120.696 6 L 120.696 49.307 L 114.183 49.307 L 112.541 45.271 L 112.179 45.271 L 112.179 45.271 Q 109.285 49.863 103.356 49.863 Z  M 106.334 43.1 L 106.334 43.1 L 106.334 43.1 Q 109.591 43.1 111.108 41.208 L 111.108 41.208 L 111.108 41.208 Q 112.625 39.315 112.764 34.778 L 112.764 34.778 L 112.764 33.86 L 112.764 33.86 Q 112.764 28.85 111.219 26.679 L 111.219 26.679 L 111.219 26.679 Q 109.674 24.508 106.195 24.508 L 106.195 24.508 L 106.195 24.508 Q 103.356 24.508 101.784 26.916 L 101.784 26.916 L 101.784 26.916 Q 100.211 29.323 100.211 33.916 L 100.211 33.916 L 100.211 33.916 Q 100.211 38.508 101.798 40.804 L 101.798 40.804 L 101.798 40.804 Q 103.384 43.1 106.334 43.1 Z  M 142.46 23.646 L 142.46 23.646 L 142.46 23.646 Q 139.761 23.646 138.23 25.357 L 138.23 25.357 L 138.23 25.357 Q 136.699 27.069 136.477 30.214 L 136.477 30.214 L 148.389 30.214 L 148.389 30.214 Q 148.333 27.069 146.747 25.357 L 146.747 25.357 L 146.747 25.357 Q 145.16 23.646 142.46 23.646 Z  M 143.657 49.863 L 143.657 49.863 L 143.657 49.863 Q 136.143 49.863 131.912 45.716 L 131.912 45.716 L 131.912 45.716 Q 127.682 41.569 127.682 33.971 L 127.682 33.971 L 127.682 33.971 Q 127.682 26.15 131.592 21.878 L 131.592 21.878 L 131.592 21.878 Q 135.502 17.606 142.405 17.606 L 142.405 17.606 L 142.405 17.606 Q 149.001 17.606 152.675 21.363 L 152.675 21.363 L 152.675 21.363 Q 156.349 25.121 156.349 31.745 L 156.349 31.745 L 156.349 35.864 L 136.282 35.864 L 136.282 35.864 Q 136.421 39.482 138.425 41.514 L 138.425 41.514 L 138.425 41.514 Q 140.429 43.545 144.047 43.545 L 144.047 43.545 L 144.047 43.545 Q 146.858 43.545 149.363 42.961 L 149.363 42.961 L 149.363 42.961 Q 151.868 42.376 154.595 41.096 L 154.595 41.096 L 154.595 47.665 L 154.595 47.665 Q 152.369 48.778 149.836 49.321 L 149.836 49.321 L 149.836 49.321 Q 147.303 49.863 143.657 49.863 Z " fill-rule="evenodd" fill="black" stroke="none"/></mask><path d=" M 212.875 49.307 L 203.635 49.307 L 201.242 38.424 L 198.013 24.675 L 197.818 24.675 L 192.141 49.307 L 183.012 49.307 L 174.161 18.19 L 182.622 18.19 L 186.212 31.967 L 186.212 31.967 Q 187.075 35.669 187.966 42.182 L 187.966 42.182 L 188.133 42.182 L 188.133 42.182 Q 188.244 40.066 189.107 35.474 L 189.107 35.474 L 189.552 33.108 L 193.393 18.19 L 202.745 18.19 L 206.391 33.108 L 206.391 33.108 Q 206.502 33.721 206.739 34.917 L 206.739 34.917 L 206.739 34.917 Q 206.975 36.114 207.198 37.464 L 207.198 37.464 L 207.198 37.464 Q 207.42 38.814 207.601 40.108 L 207.601 40.108 L 207.601 40.108 Q 207.782 41.402 207.81 42.182 L 207.81 42.182 L 207.977 42.182 L 207.977 42.182 Q 208.228 40.178 208.868 36.685 L 208.868 36.685 L 208.868 36.685 Q 209.508 33.192 209.786 31.967 L 209.786 31.967 L 213.516 18.19 L 221.837 18.19 L 212.875 49.307 Z  M 226.485 10.147 L 226.485 10.147 L 226.485 10.147 Q 226.485 6 231.105 6 L 231.105 6 L 231.105 6 Q 235.726 6 235.726 10.147 L 235.726 10.147 L 235.726 10.147 Q 235.726 12.123 234.571 13.222 L 234.571 13.222 L 234.571 13.222 Q 233.416 14.322 231.105 14.322 L 231.105 14.322 L 231.105 14.322 Q 226.485 14.322 226.485 10.147 Z  M 235.336 18.19 L 235.336 49.307 L 226.847 49.307 L 226.847 18.19 L 235.336 18.19 Z  M 257.351 43.1 L 257.351 43.1 L 257.351 43.1 Q 259.578 43.1 262.695 42.126 L 262.695 42.126 L 262.695 48.444 L 262.695 48.444 Q 259.522 49.863 254.902 49.863 L 254.902 49.863 L 254.902 49.863 Q 249.809 49.863 247.485 47.289 L 247.485 47.289 L 247.485 47.289 Q 245.161 44.714 245.161 39.565 L 245.161 39.565 L 245.161 24.564 L 241.097 24.564 L 241.097 20.974 L 245.773 18.135 L 248.222 11.566 L 253.649 11.566 L 253.649 18.19 L 262.361 18.19 L 262.361 24.564 L 253.649 24.564 L 253.649 39.565 L 253.649 39.565 Q 253.649 41.375 254.665 42.237 L 254.665 42.237 L 254.665 42.237 Q 255.681 43.1 257.351 43.1 Z  M 297.708 29.017 L 297.708 49.307 L 289.219 49.307 L 289.219 31.132 L 289.219 31.132 Q 289.219 24.397 284.209 24.397 L 284.209 24.397 L 284.209 24.397 Q 280.646 24.397 279.06 26.818 L 279.06 26.818 L 279.06 26.818 Q 277.474 29.24 277.474 34.667 L 277.474 34.667 L 277.474 49.307 L 268.985 49.307 L 268.985 6 L 277.474 6 L 277.474 14.823 L 277.474 14.823 Q 277.474 15.853 277.279 19.666 L 277.279 19.666 L 277.084 22.17 L 277.529 22.17 L 277.529 22.17 Q 280.368 17.606 286.547 17.606 L 286.547 17.606 L 286.547 17.606 Q 292.03 17.606 294.869 20.556 L 294.869 20.556 L 294.869 20.556 Q 297.708 23.506 297.708 29.017 L 297.708 29.017 Z  M 31.132 49.307 L 23.228 49.307 L 13.431 17.383 L 13.181 17.383 L 13.181 17.383 Q 13.709 27.125 13.709 30.381 L 13.709 30.381 L 13.709 49.307 L 6 49.307 L 6 8.616 L 17.745 8.616 L 27.375 39.732 L 27.542 39.732 L 37.756 8.616 L 49.501 8.616 L 49.501 49.307 L 41.458 49.307 L 41.458 30.047 L 41.458 30.047 Q 41.458 28.683 41.5 26.902 L 41.5 26.902 L 41.5 26.902 Q 41.542 25.121 41.875 17.439 L 41.875 17.439 L 41.625 17.439 L 31.132 49.307 Z  M 84.765 49.307 L 78.836 49.307 L 77.194 45.076 L 76.972 45.076 L 76.972 45.076 Q 74.829 47.776 72.56 48.82 L 72.56 48.82 L 72.56 48.82 Q 70.292 49.863 66.646 49.863 L 66.646 49.863 L 66.646 49.863 Q 62.165 49.863 59.591 47.303 L 59.591 47.303 L 59.591 47.303 Q 57.016 44.742 57.016 40.011 L 57.016 40.011 L 57.016 40.011 Q 57.016 35.057 60.481 32.705 L 60.481 32.705 L 60.481 32.705 Q 63.946 30.353 70.932 30.103 L 70.932 30.103 L 76.332 29.936 L 76.332 28.572 L 76.332 28.572 Q 76.332 23.84 71.489 23.84 L 71.489 23.84 L 71.489 23.84 Q 67.759 23.84 62.722 26.095 L 62.722 26.095 L 59.911 20.361 L 59.911 20.361 Q 65.282 17.55 71.823 17.55 L 71.823 17.55 L 71.823 17.55 Q 78.085 17.55 81.425 20.278 L 81.425 20.278 L 81.425 20.278 Q 84.765 23.005 84.765 28.572 L 84.765 28.572 L 84.765 49.307 Z  M 76.332 37.45 L 76.332 34.89 L 73.047 35.001 L 73.047 35.001 Q 69.346 35.112 67.537 36.337 L 67.537 36.337 L 67.537 36.337 Q 65.728 37.562 65.728 40.066 L 65.728 40.066 L 65.728 40.066 Q 65.728 43.657 69.847 43.657 L 69.847 43.657 L 69.847 43.657 Q 72.797 43.657 74.564 41.959 L 74.564 41.959 L 74.564 41.959 Q 76.332 40.261 76.332 37.45 L 76.332 37.45 Z  M 103.356 49.863 L 103.356 49.863 L 103.356 49.863 Q 97.874 49.863 94.742 45.605 L 94.742 45.605 L 94.742 45.605 Q 91.611 41.347 91.611 33.804 L 91.611 33.804 L 91.611 33.804 Q 91.611 26.15 94.798 21.878 L 94.798 21.878 L 94.798 21.878 Q 97.985 17.606 103.579 17.606 L 103.579 17.606 L 103.579 17.606 Q 109.452 17.606 112.541 22.17 L 112.541 22.17 L 112.819 22.17 L 112.819 22.17 Q 112.179 18.691 112.179 15.964 L 112.179 15.964 L 112.179 6 L 120.696 6 L 120.696 49.307 L 114.183 49.307 L 112.541 45.271 L 112.179 45.271 L 112.179 45.271 Q 109.285 49.863 103.356 49.863 Z  M 106.334 43.1 L 106.334 43.1 L 106.334 43.1 Q 109.591 43.1 111.108 41.208 L 111.108 41.208 L 111.108 41.208 Q 112.625 39.315 112.764 34.778 L 112.764 34.778 L 112.764 33.86 L 112.764 33.86 Q 112.764 28.85 111.219 26.679 L 111.219 26.679 L 111.219 26.679 Q 109.674 24.508 106.195 24.508 L 106.195 24.508 L 106.195 24.508 Q 103.356 24.508 101.784 26.916 L 101.784 26.916 L 101.784 26.916 Q 100.211 29.323 100.211 33.916 L 100.211 33.916 L 100.211 33.916 Q 100.211 38.508 101.798 40.804 L 101.798 40.804 L 101.798 40.804 Q 103.384 43.1 106.334 43.1 Z  M 142.46 23.646 L 142.46 23.646 L 142.46 23.646 Q 139.761 23.646 138.23 25.357 L 138.23 25.357 L 138.23 25.357 Q 136.699 27.069 136.477 30.214 L 136.477 30.214 L 148.389 30.214 L 148.389 30.214 Q 148.333 27.069 146.747 25.357 L 146.747 25.357 L 146.747 25.357 Q 145.16 23.646 142.46 23.646 Z  M 143.657 49.863 L 143.657 49.863 L 143.657 49.863 Q 136.143 49.863 131.912 45.716 L 131.912 45.716 L 131.912 45.716 Q 127.682 41.569 127.682 33.971 L 127.682 33.971 L 127.682 33.971 Q 127.682 26.15 131.592 21.878 L 131.592 21.878 L 131.592 21.878 Q 135.502 17.606 142.405 17.606 L 142.405 17.606 L 142.405 17.606 Q 149.001 17.606 152.675 21.363 L 152.675 21.363 L 152.675 21.363 Q 156.349 25.121 156.349 31.745 L 156.349 31.745 L 156.349 35.864 L 136.282 35.864 L 136.282 35.864 Q 136.421 39.482 138.425 41.514 L 138.425 41.514 L 138.425 41.514 Q 140.429 43.545 144.047 43.545 L 144.047 43.545 L 144.047 43.545 Q 146.858 43.545 149.363 42.961 L 149.363 42.961 L 149.363 42.961 Q 151.868 42.376 154.595 41.096 L 154.595 41.096 L 154.595 47.665 L 154.595 47.665 Q 152.369 48.778 149.836 49.321 L 149.836 49.321 L 149.836 49.321 Q 147.303 49.863 143.657 49.863 Z " fill-rule="evenodd" fill="rgb(255,255,255)" mask="url(#_mask_wdxGidPoZFPpEPOapAXiFulMCRvLrr1X)" vector-effect="non-scaling-stroke" stroke-width="12" stroke="rgb(255,255,255)" stroke-linejoin="miter" stroke-linecap="square" stroke-miterlimit="3"/><mask id="_mask_zHXFy6YDXPFHYlLiu4HBS875ufRIHkpn" x="-200%" y="-200%" width="400%" height="400%"><rect x="0" y="0" width="100%" height="100%" style="fill:white;"/><path d=" M 212.875 49.307 L 203.635 49.307 L 201.242 38.424 L 198.013 24.675 L 197.818 24.675 L 192.141 49.307 L 183.012 49.307 L 174.161 18.19 L 182.622 18.19 L 186.212 31.967 L 186.212 31.967 Q 187.075 35.669 187.966 42.182 L 187.966 42.182 L 188.133 42.182 L 188.133 42.182 Q 188.244 40.066 189.107 35.474 L 189.107 35.474 L 189.552 33.108 L 193.393 18.19 L 202.745 18.19 L 206.391 33.108 L 206.391 33.108 Q 206.502 33.721 206.739 34.917 L 206.739 34.917 L 206.739 34.917 Q 206.975 36.114 207.198 37.464 L 207.198 37.464 L 207.198 37.464 Q 207.42 38.814 207.601 40.108 L 207.601 40.108 L 207.601 40.108 Q 207.782 41.402 207.81 42.182 L 207.81 42.182 L 207.977 42.182 L 207.977 42.182 Q 208.228 40.178 208.868 36.685 L 208.868 36.685 L 208.868 36.685 Q 209.508 33.192 209.786 31.967 L 209.786 31.967 L 213.516 18.19 L 221.837 18.19 L 212.875 49.307 Z  M 226.485 10.147 L 226.485 10.147 L 226.485 10.147 Q 226.485 6 231.105 6 L 231.105 6 L 231.105 6 Q 235.726 6 235.726 10.147 L 235.726 10.147 L 235.726 10.147 Q 235.726 12.123 234.571 13.222 L 234.571 13.222 L 234.571 13.222 Q 233.416 14.322 231.105 14.322 L 231.105 14.322 L 231.105 14.322 Q 226.485 14.322 226.485 10.147 Z  M 235.336 18.19 L 235.336 49.307 L 226.847 49.307 L 226.847 18.19 L 235.336 18.19 Z  M 257.351 43.1 L 257.351 43.1 L 257.351 43.1 Q 259.578 43.1 262.695 42.126 L 262.695 42.126 L 262.695 48.444 L 262.695 48.444 Q 259.522 49.863 254.902 49.863 L 254.902 49.863 L 254.902 49.863 Q 249.809 49.863 247.485 47.289 L 247.485 47.289 L 247.485 47.289 Q 245.161 44.714 245.161 39.565 L 245.161 39.565 L 245.161 24.564 L 241.097 24.564 L 241.097 20.974 L 245.773 18.135 L 248.222 11.566 L 253.649 11.566 L 253.649 18.19 L 262.361 18.19 L 262.361 24.564 L 253.649 24.564 L 253.649 39.565 L 253.649 39.565 Q 253.649 41.375 254.665 42.237 L 254.665 42.237 L 254.665 42.237 Q 255.681 43.1 257.351 43.1 Z  M 297.708 29.017 L 297.708 49.307 L 289.219 49.307 L 289.219 31.132 L 289.219 31.132 Q 289.219 24.397 284.209 24.397 L 284.209 24.397 L 284.209 24.397 Q 280.646 24.397 279.06 26.818 L 279.06 26.818 L 279.06 26.818 Q 277.474 29.24 277.474 34.667 L 277.474 34.667 L 277.474 49.307 L 268.985 49.307 L 268.985 6 L 277.474 6 L 277.474 14.823 L 277.474 14.823 Q 277.474 15.853 277.279 19.666 L 277.279 19.666 L 277.084 22.17 L 277.529 22.17 L 277.529 22.17 Q 280.368 17.606 286.547 17.606 L 286.547 17.606 L 286.547 17.606 Q 292.03 17.606 294.869 20.556 L 294.869 20.556 L 294.869 20.556 Q 297.708 23.506 297.708 29.017 L 297.708 29.017 Z  M 31.132 49.307 L 23.228 49.307 L 13.431 17.383 L 13.181 17.383 L 13.181 17.383 Q 13.709 27.125 13.709 30.381 L 13.709 30.381 L 13.709 49.307 L 6 49.307 L 6 8.616 L 17.745 8.616 L 27.375 39.732 L 27.542 39.732 L 37.756 8.616 L 49.501 8.616 L 49.501 49.307 L 41.458 49.307 L 41.458 30.047 L 41.458 30.047 Q 41.458 28.683 41.5 26.902 L 41.5 26.902 L 41.5 26.902 Q 41.542 25.121 41.875 17.439 L 41.875 17.439 L 41.625 17.439 L 31.132 49.307 Z  M 84.765 49.307 L 78.836 49.307 L 77.194 45.076 L 76.972 45.076 L 76.972 45.076 Q 74.829 47.776 72.56 48.82 L 72.56 48.82 L 72.56 48.82 Q 70.292 49.863 66.646 49.863 L 66.646 49.863 L 66.646 49.863 Q 62.165 49.863 59.591 47.303 L 59.591 47.303 L 59.591 47.303 Q 57.016 44.742 57.016 40.011 L 57.016 40.011 L 57.016 40.011 Q 57.016 35.057 60.481 32.705 L 60.481 32.705 L 60.481 32.705 Q 63.946 30.353 70.932 30.103 L 70.932 30.103 L 76.332 29.936 L 76.332 28.572 L 76.332 28.572 Q 76.332 23.84 71.489 23.84 L 71.489 23.84 L 71.489 23.84 Q 67.759 23.84 62.722 26.095 L 62.722 26.095 L 59.911 20.361 L 59.911 20.361 Q 65.282 17.55 71.823 17.55 L 71.823 17.55 L 71.823 17.55 Q 78.085 17.55 81.425 20.278 L 81.425 20.278 L 81.425 20.278 Q 84.765 23.005 84.765 28.572 L 84.765 28.572 L 84.765 49.307 Z  M 76.332 37.45 L 76.332 34.89 L 73.047 35.001 L 73.047 35.001 Q 69.346 35.112 67.537 36.337 L 67.537 36.337 L 67.537 36.337 Q 65.728 37.562 65.728 40.066 L 65.728 40.066 L 65.728 40.066 Q 65.728 43.657 69.847 43.657 L 69.847 43.657 L 69.847 43.657 Q 72.797 43.657 74.564 41.959 L 74.564 41.959 L 74.564 41.959 Q 76.332 40.261 76.332 37.45 L 76.332 37.45 Z  M 103.356 49.863 L 103.356 49.863 L 103.356 49.863 Q 97.874 49.863 94.742 45.605 L 94.742 45.605 L 94.742 45.605 Q 91.611 41.347 91.611 33.804 L 91.611 33.804 L 91.611 33.804 Q 91.611 26.15 94.798 21.878 L 94.798 21.878 L 94.798 21.878 Q 97.985 17.606 103.579 17.606 L 103.579 17.606 L 103.579 17.606 Q 109.452 17.606 112.541 22.17 L 112.541 22.17 L 112.819 22.17 L 112.819 22.17 Q 112.179 18.691 112.179 15.964 L 112.179 15.964 L 112.179 6 L 120.696 6 L 120.696 49.307 L 114.183 49.307 L 112.541 45.271 L 112.179 45.271 L 112.179 45.271 Q 109.285 49.863 103.356 49.863 Z  M 106.334 43.1 L 106.334 43.1 L 106.334 43.1 Q 109.591 43.1 111.108 41.208 L 111.108 41.208 L 111.108 41.208 Q 112.625 39.315 112.764 34.778 L 112.764 34.778 L 112.764 33.86 L 112.764 33.86 Q 112.764 28.85 111.219 26.679 L 111.219 26.679 L 111.219 26.679 Q 109.674 24.508 106.195 24.508 L 106.195 24.508 L 106.195 24.508 Q 103.356 24.508 101.784 26.916 L 101.784 26.916 L 101.784 26.916 Q 100.211 29.323 100.211 33.916 L 100.211 33.916 L 100.211 33.916 Q 100.211 38.508 101.798 40.804 L 101.798 40.804 L 101.798 40.804 Q 103.384 43.1 106.334 43.1 Z  M 142.46 23.646 L 142.46 23.646 L 142.46 23.646 Q 139.761 23.646 138.23 25.357 L 138.23 25.357 L 138.23 25.357 Q 136.699 27.069 136.477 30.214 L 136.477 30.214 L 148.389 30.214 L 148.389 30.214 Q 148.333 27.069 146.747 25.357 L 146.747 25.357 L 146.747 25.357 Q 145.16 23.646 142.46 23.646 Z  M 143.657 49.863 L 143.657 49.863 L 143.657 49.863 Q 136.143 49.863 131.912 45.716 L 131.912 45.716 L 131.912 45.716 Q 127.682 41.569 127.682 33.971 L 127.682 33.971 L 127.682 33.971 Q 127.682 26.15 131.592 21.878 L 131.592 21.878 L 131.592 21.878 Q 135.502 17.606 142.405 17.606 L 142.405 17.606 L 142.405 17.606 Q 149.001 17.606 152.675 21.363 L 152.675 21.363 L 152.675 21.363 Q 156.349 25.121 156.349 31.745 L 156.349 31.745 L 156.349 35.864 L 136.282 35.864 L 136.282 35.864 Q 136.421 39.482 138.425 41.514 L 138.425 41.514 L 138.425 41.514 Q 140.429 43.545 144.047 43.545 L 144.047 43.545 L 144.047 43.545 Q 146.858 43.545 149.363 42.961 L 149.363 42.961 L 149.363 42.961 Q 151.868 42.376 154.595 41.096 L 154.595 41.096 L 154.595 47.665 L 154.595 47.665 Q 152.369 48.778 149.836 49.321 L 149.836 49.321 L 149.836 49.321 Q 147.303 49.863 143.657 49.863 Z " fill-rule="evenodd" fill="black" stroke="none"/></mask><path d=" M 212.875 49.307 L 203.635 49.307 L 201.242 38.424 L 198.013 24.675 L 197.818 24.675 L 192.141 49.307 L 183.012 49.307 L 174.161 18.19 L 182.622 18.19 L 186.212 31.967 L 186.212 31.967 Q 187.075 35.669 187.966 42.182 L 187.966 42.182 L 188.133 42.182 L 188.133 42.182 Q 188.244 40.066 189.107 35.474 L 189.107 35.474 L 189.552 33.108 L 193.393 18.19 L 202.745 18.19 L 206.391 33.108 L 206.391 33.108 Q 206.502 33.721 206.739 34.917 L 206.739 34.917 L 206.739 34.917 Q 206.975 36.114 207.198 37.464 L 207.198 37.464 L 207.198 37.464 Q 207.42 38.814 207.601 40.108 L 207.601 40.108 L 207.601 40.108 Q 207.782 41.402 207.81 42.182 L 207.81 42.182 L 207.977 42.182 L 207.977 42.182 Q 208.228 40.178 208.868 36.685 L 208.868 36.685 L 208.868 36.685 Q 209.508 33.192 209.786 31.967 L 209.786 31.967 L 213.516 18.19 L 221.837 18.19 L 212.875 49.307 Z  M 226.485 10.147 L 226.485 10.147 L 226.485 10.147 Q 226.485 6 231.105 6 L 231.105 6 L 231.105 6 Q 235.726 6 235.726 10.147 L 235.726 10.147 L 235.726 10.147 Q 235.726 12.123 234.571 13.222 L 234.571 13.222 L 234.571 13.222 Q 233.416 14.322 231.105 14.322 L 231.105 14.322 L 231.105 14.322 Q 226.485 14.322 226.485 10.147 Z  M 235.336 18.19 L 235.336 49.307 L 226.847 49.307 L 226.847 18.19 L 235.336 18.19 Z  M 257.351 43.1 L 257.351 43.1 L 257.351 43.1 Q 259.578 43.1 262.695 42.126 L 262.695 42.126 L 262.695 48.444 L 262.695 48.444 Q 259.522 49.863 254.902 49.863 L 254.902 49.863 L 254.902 49.863 Q 249.809 49.863 247.485 47.289 L 247.485 47.289 L 247.485 47.289 Q 245.161 44.714 245.161 39.565 L 245.161 39.565 L 245.161 24.564 L 241.097 24.564 L 241.097 20.974 L 245.773 18.135 L 248.222 11.566 L 253.649 11.566 L 253.649 18.19 L 262.361 18.19 L 262.361 24.564 L 253.649 24.564 L 253.649 39.565 L 253.649 39.565 Q 253.649 41.375 254.665 42.237 L 254.665 42.237 L 254.665 42.237 Q 255.681 43.1 257.351 43.1 Z  M 297.708 29.017 L 297.708 49.307 L 289.219 49.307 L 289.219 31.132 L 289.219 31.132 Q 289.219 24.397 284.209 24.397 L 284.209 24.397 L 284.209 24.397 Q 280.646 24.397 279.06 26.818 L 279.06 26.818 L 279.06 26.818 Q 277.474 29.24 277.474 34.667 L 277.474 34.667 L 277.474 49.307 L 268.985 49.307 L 268.985 6 L 277.474 6 L 277.474 14.823 L 277.474 14.823 Q 277.474 15.853 277.279 19.666 L 277.279 19.666 L 277.084 22.17 L 277.529 22.17 L 277.529 22.17 Q 280.368 17.606 286.547 17.606 L 286.547 17.606 L 286.547 17.606 Q 292.03 17.606 294.869 20.556 L 294.869 20.556 L 294.869 20.556 Q 297.708 23.506 297.708 29.017 L 297.708 29.017 Z  M 31.132 49.307 L 23.228 49.307 L 13.431 17.383 L 13.181 17.383 L 13.181 17.383 Q 13.709 27.125 13.709 30.381 L 13.709 30.381 L 13.709 49.307 L 6 49.307 L 6 8.616 L 17.745 8.616 L 27.375 39.732 L 27.542 39.732 L 37.756 8.616 L 49.501 8.616 L 49.501 49.307 L 41.458 49.307 L 41.458 30.047 L 41.458 30.047 Q 41.458 28.683 41.5 26.902 L 41.5 26.902 L 41.5 26.902 Q 41.542 25.121 41.875 17.439 L 41.875 17.439 L 41.625 17.439 L 31.132 49.307 Z  M 84.765 49.307 L 78.836 49.307 L 77.194 45.076 L 76.972 45.076 L 76.972 45.076 Q 74.829 47.776 72.56 48.82 L 72.56 48.82 L 72.56 48.82 Q 70.292 49.863 66.646 49.863 L 66.646 49.863 L 66.646 49.863 Q 62.165 49.863 59.591 47.303 L 59.591 47.303 L 59.591 47.303 Q 57.016 44.742 57.016 40.011 L 57.016 40.011 L 57.016 40.011 Q 57.016 35.057 60.481 32.705 L 60.481 32.705 L 60.481 32.705 Q 63.946 30.353 70.932 30.103 L 70.932 30.103 L 76.332 29.936 L 76.332 28.572 L 76.332 28.572 Q 76.332 23.84 71.489 23.84 L 71.489 23.84 L 71.489 23.84 Q 67.759 23.84 62.722 26.095 L 62.722 26.095 L 59.911 20.361 L 59.911 20.361 Q 65.282 17.55 71.823 17.55 L 71.823 17.55 L 71.823 17.55 Q 78.085 17.55 81.425 20.278 L 81.425 20.278 L 81.425 20.278 Q 84.765 23.005 84.765 28.572 L 84.765 28.572 L 84.765 49.307 Z  M 76.332 37.45 L 76.332 34.89 L 73.047 35.001 L 73.047 35.001 Q 69.346 35.112 67.537 36.337 L 67.537 36.337 L 67.537 36.337 Q 65.728 37.562 65.728 40.066 L 65.728 40.066 L 65.728 40.066 Q 65.728 43.657 69.847 43.657 L 69.847 43.657 L 69.847 43.657 Q 72.797 43.657 74.564 41.959 L 74.564 41.959 L 74.564 41.959 Q 76.332 40.261 76.332 37.45 L 76.332 37.45 Z  M 103.356 49.863 L 103.356 49.863 L 103.356 49.863 Q 97.874 49.863 94.742 45.605 L 94.742 45.605 L 94.742 45.605 Q 91.611 41.347 91.611 33.804 L 91.611 33.804 L 91.611 33.804 Q 91.611 26.15 94.798 21.878 L 94.798 21.878 L 94.798 21.878 Q 97.985 17.606 103.579 17.606 L 103.579 17.606 L 103.579 17.606 Q 109.452 17.606 112.541 22.17 L 112.541 22.17 L 112.819 22.17 L 112.819 22.17 Q 112.179 18.691 112.179 15.964 L 112.179 15.964 L 112.179 6 L 120.696 6 L 120.696 49.307 L 114.183 49.307 L 112.541 45.271 L 112.179 45.271 L 112.179 45.271 Q 109.285 49.863 103.356 49.863 Z  M 106.334 43.1 L 106.334 43.1 L 106.334 43.1 Q 109.591 43.1 111.108 41.208 L 111.108 41.208 L 111.108 41.208 Q 112.625 39.315 112.764 34.778 L 112.764 34.778 L 112.764 33.86 L 112.764 33.86 Q 112.764 28.85 111.219 26.679 L 111.219 26.679 L 111.219 26.679 Q 109.674 24.508 106.195 24.508 L 106.195 24.508 L 106.195 24.508 Q 103.356 24.508 101.784 26.916 L 101.784 26.916 L 101.784 26.916 Q 100.211 29.323 100.211 33.916 L 100.211 33.916 L 100.211 33.916 Q 100.211 38.508 101.798 40.804 L 101.798 40.804 L 101.798 40.804 Q 103.384 43.1 106.334 43.1 Z  M 142.46 23.646 L 142.46 23.646 L 142.46 23.646 Q 139.761 23.646 138.23 25.357 L 138.23 25.357 L 138.23 25.357 Q 136.699 27.069 136.477 30.214 L 136.477 30.214 L 148.389 30.214 L 148.389 30.214 Q 148.333 27.069 146.747 25.357 L 146.747 25.357 L 146.747 25.357 Q 145.16 23.646 142.46 23.646 Z  M 143.657 49.863 L 143.657 49.863 L 143.657 49.863 Q 136.143 49.863 131.912 45.716 L 131.912 45.716 L 131.912 45.716 Q 127.682 41.569 127.682 33.971 L 127.682 33.971 L 127.682 33.971 Q 127.682 26.15 131.592 21.878 L 131.592 21.878 L 131.592 21.878 Q 135.502 17.606 142.405 17.606 L 142.405 17.606 L 142.405 17.606 Q 149.001 17.606 152.675 21.363 L 152.675 21.363 L 152.675 21.363 Q 156.349 25.121 156.349 31.745 L 156.349 31.745 L 156.349 35.864 L 136.282 35.864 L 136.282 35.864 Q 136.421 39.482 138.425 41.514 L 138.425 41.514 L 138.425 41.514 Q 140.429 43.545 144.047 43.545 L 144.047 43.545 L 144.047 43.545 Q 146.858 43.545 149.363 42.961 L 149.363 42.961 L 149.363 42.961 Q 151.868 42.376 154.595 41.096 L 154.595 41.096 L 154.595 47.665 L 154.595 47.665 Q 152.369 48.778 149.836 49.321 L 149.836 49.321 L 149.836 49.321 Q 147.303 49.863 143.657 49.863 Z " fill-rule="evenodd" fill="rgb(255,255,255)" mask="url(#_mask_zHXFy6YDXPFHYlLiu4HBS875ufRIHkpn)" vector-effect="non-scaling-stroke" stroke-width="8" stroke="rgb(0,0,0)" stroke-linejoin="miter" stroke-linecap="square" stroke-miterlimit="3"/></g></svg>